<?xml version="1.0" standalone="no"?>
<!DOCTYPE svg PUBLIC "-//W3C//DTD SVG 20010904//EN"
 "http://www.w3.org/TR/2001/REC-SVG-20010904/DTD/svg10.dtd">
<svg version="1.0" xmlns="http://www.w3.org/2000/svg"
 width="614.000000pt" height="567.000000pt" viewBox="0 0 614.000000 567.000000"
 preserveAspectRatio="xMidYMid meet">

<g transform="translate(0.000000,567.000000) scale(0.100000,-0.100000)"
fill="#000000" stroke="none">
<path d="M0 2835 l0 -2835 3070 0 3070 0 0 2835 0 2835 -3070 0 -3070 0 0
-2835z m3203 1762 c66 -33 105 -69 488 -454 488 -491 474 -471 474 -654 0
-101 -1 -108 -37 -180 -34 -69 -65 -102 -455 -490 -491 -488 -472 -474 -654
-474 -101 0 -108 1 -180 37 -69 34 -102 65 -490 455 -488 491 -474 471 -474
653 0 182 -14 163 474 652 497 500 499 501 694 494 77 -3 97 -8 160 -39z
m-1093 -3147 l0 -180 -40 0 -40 0 0 180 0 180 40 0 40 0 0 -180z m203 168
c-14 -24 -166 -243 -175 -253 -4 -5 -8 20 -8 56 0 62 2 68 51 137 50 71 51 72
95 72 34 0 43 -3 37 -12z m147 -123 l0 -135 -40 0 -40 0 0 135 0 135 40 0 40
0 0 -135z m290 -45 l0 -180 -45 0 -45 0 0 180 0 180 45 0 45 0 0 -180z m170
105 l0 -75 60 0 60 0 0 -30 0 -30 -60 0 -60 0 0 -30 c0 -29 -2 -30 -45 -30
l-45 0 0 135 0 135 45 0 45 0 0 -75z m130 40 l0 -35 -55 0 -55 0 0 35 0 35 55
0 55 0 0 -35z m191 -135 c32 -91 58 -171 58 -178 1 -9 -11 -12 -41 -10 l-42 3
-57 165 c-32 91 -58 171 -58 178 -1 9 11 12 41 10 l41 -3 58 -165z m142 5
c-32 -91 -60 -161 -64 -157 -4 4 -14 30 -22 57 -14 50 -14 53 22 158 l36 107
42 0 42 0 -56 -165z m189 93 l3 -73 63 -3 c61 -3 62 -3 62 -32 l0 -30 -65 0
-65 0 0 -30 c0 -28 -2 -30 -40 -30 l-40 0 0 135 0 135 40 0 39 0 3 -72z m136
40 c-3 -33 -3 -33 -58 -33 -55 0 -55 0 -58 33 l-3 32 61 0 61 0 -3 -32z m152
-148 l0 -180 -40 0 -40 0 0 180 0 180 40 0 40 0 0 -180z m240 25 c0 -85 -2
-155 -4 -155 -2 0 -20 25 -40 55 -35 54 -36 56 -36 155 l0 100 40 0 40 0 0
-155z m-108 -40 c52 -77 98 -146 102 -152 5 -10 -4 -13 -36 -13 l-43 1 -67
101 c-65 97 -68 103 -68 161 0 34 4 57 8 52 5 -6 52 -73 104 -150z m-1723 -73
c28 -43 51 -81 51 -85 0 -4 -22 -7 -49 -7 -48 0 -50 1 -79 49 l-30 49 24 36
c14 20 26 36 28 36 2 0 27 -35 55 -78z m341 -34 c0 -7 -3 -23 -6 -35 -6 -22
-11 -23 -115 -23 l-109 0 0 35 0 35 115 0 c85 0 115 -3 115 -12z m448 -20 l-3
-33 -112 -3 -113 -3 0 36 0 35 116 0 115 0 -3 -32z m652 -3 l0 -35 -110 0
-110 0 0 35 0 35 110 0 110 0 0 -35z"/>
</g>
</svg>
